<svg width="20" height="20" viewBox="0 0 20 20" fill="none" xmlns="http://www.w3.org/2000/svg">
<path d="M0.621094 13.4782C2.03402 17.2862 5.69945 20 9.9991 20C14.2987 20 17.9642 17.2862 19.3771 13.4782L9.9991 12.6087L0.621094 13.4782Z" fill="#FFDA44"/>
<path d="M9.9991 0C5.69945 0 2.03402 2.71375 0.621094 6.52175L9.9991 7.39129L19.3771 6.52172C17.9642 2.71375 14.2987 0 9.9991 0Z" fill="black"/>
<path d="M0.621992 6.52176C0.220039 7.60508 0 8.7768 0 10C0 11.2232 0.220039 12.3949 0.621992 13.4782H19.378C19.78 12.3949 20 11.2232 20 10C20 8.7768 19.78 7.60508 19.378 6.52176H0.621992Z" fill="#D80027"/>
</svg>
