<svg width="20" height="20" viewBox="0 0 20 20" fill="none" xmlns="http://www.w3.org/2000/svg">
<path d="M10 20C15.5228 20 20 15.5228 20 10C20 4.47715 15.5228 0 10 0C4.47715 0 0 4.47715 0 10C0 15.5228 4.47715 20 10 20Z" fill="#F0F0F0"/>
<path d="M10 0C6.03516 0 2.60938 2.30859 0.992188 5.65234H19.0078C17.3906 2.30859 13.9648 0 10 0Z" fill="#FF9811"/>
<path d="M10 20C13.9648 20 17.3906 17.6914 19.0078 14.3477H0.992188C2.60938 17.6914 6.03516 20 10 20Z" fill="#6DA544"/>
<path fill-rule="evenodd" clip-rule="evenodd" d="M10 7.5C11.3807 7.5 12.5 8.61929 12.5 10C12.5 11.3807 11.3807 12.5 10 12.5C8.61929 12.5 7.5 11.3807 7.5 10C7.5 8.61929 8.61929 7.5 10 7.5ZM8.7373 10.9189C8.99092 11.2669 9.384 11.5064 9.83496 11.5537L9.51758 10.835L8.7373 10.9189ZM10.1641 11.5537C10.6152 11.5066 11.0079 11.2669 11.2617 10.9189L10.4814 10.835L10.1641 11.5537ZM8.57227 9.36621C8.48611 9.56 8.43751 9.77425 8.4375 10C8.4375 10.2254 8.48635 10.4392 8.57227 10.6328L9.03613 10L8.57227 9.36621ZM10.9639 10L11.4268 10.6328C11.5128 10.4391 11.5625 10.2256 11.5625 10C11.5625 9.7741 11.513 9.5601 11.4268 9.36621L10.9639 10ZM9.83496 8.44531C9.38426 8.49261 8.99096 8.73251 8.7373 9.08008L9.51758 9.16504L9.83496 8.44531ZM10.4814 9.16504L11.2617 9.08008C11.0079 8.73251 10.615 8.49233 10.1641 8.44531L10.4814 9.16504Z" fill="#0052B4"/>
</svg>
