<svg width="20" height="20" viewBox="0 0 20 20" fill="none" xmlns="http://www.w3.org/2000/svg">
<rect width="20" height="20" fill="#F5F5F5"/>
<rect width="1876" height="988" transform="translate(-820 -796)" fill="white"/>
<path d="M10 20C15.5228 20 20 15.5228 20 10C20 4.47715 15.5228 0 10 0C4.47715 0 0 4.47715 0 10C0 15.5228 4.47715 20 10 20Z" fill="white"/>
<path d="M13.478 9.99997C13.478 10.8695 11.9207 13.0434 9.99973 13.0434C8.07875 13.0434 6.52148 10.8695 6.52148 9.99997C6.52148 8.07895 8.07875 6.52173 9.99973 6.52173C11.9207 6.52173 13.478 8.07895 13.478 9.99997Z" fill="#D80027"/>
<path d="M13.478 10C13.478 11.921 11.9207 13.4782 9.99973 13.4782C8.07875 13.4782 6.52148 11.921 6.52148 10" fill="#0052B4"/>
<path d="M13.6875 13.0746L14.6097 12.1524L15.2245 12.7672L14.3023 13.6894L13.6875 13.0746Z" fill="black"/>
<path d="M12.1484 14.6116L13.0706 13.6894L13.6854 14.3042L12.7632 15.2264L12.1484 14.6116Z" fill="black"/>
<path d="M15.5312 14.9188L16.4534 13.9967L17.0682 14.6114L16.146 15.5336L15.5312 14.9188Z" fill="black"/>
<path d="M13.9941 16.4561L14.9163 15.5339L15.5311 16.1487L14.6089 17.0708L13.9941 16.4561Z" fill="black"/>
<path d="M14.6094 13.9967L15.5315 13.0745L16.1463 13.6893L15.2242 14.6115L14.6094 13.9967Z" fill="black"/>
<path d="M13.0723 15.5337L13.9944 14.6115L14.6092 15.2263L13.6871 16.1485L13.0723 15.5337Z" fill="black"/>
<path d="M15.5352 6.92712L13.076 4.46801L13.6908 3.85322L16.1499 6.31234L15.5352 6.92712Z" fill="black"/>
<path d="M13.0762 6.31262L12.154 5.39046L12.7688 4.7757L13.6909 5.69786L13.0762 6.31262Z" fill="black"/>
<path d="M14.6133 7.84998L13.6911 6.92781L14.3059 6.31305L15.228 7.23522L14.6133 7.84998Z" fill="black"/>
<path d="M14.9199 4.46802L13.9978 3.54585L14.6125 2.93107L15.5347 3.85323L14.9199 4.46802Z" fill="black"/>
<path d="M16.457 6.00549L15.5349 5.08333L16.1497 4.46854L17.0718 5.39071L16.457 6.00549Z" fill="black"/>
<path d="M3.54492 13.995L6.00404 16.4541L5.38925 17.0689L2.93014 14.6098L3.54492 13.995Z" fill="black"/>
<path d="M6.00391 14.6093L6.92607 15.5314L6.31131 16.1462L5.38915 15.224L6.00391 14.6093Z" fill="black"/>
<path d="M4.4668 13.0726L5.38896 13.9948L4.77418 14.6096L3.85201 13.6874L4.4668 13.0726Z" fill="black"/>
<path d="M5.38867 12.1501L7.84779 14.6093L7.233 15.224L4.77389 12.7649L5.38867 12.1501Z" fill="black"/>
<path d="M6.00391 3.54395L3.54479 6.00306L2.93 5.38828L5.38912 2.92916L6.00391 3.54395Z" fill="black"/>
<path d="M6.92578 4.46594L4.46666 6.92506L3.85188 6.31027L6.31099 3.85116L6.92578 4.46594Z" fill="black"/>
<path d="M7.84961 5.38867L5.39049 7.84779L4.77573 7.23303L7.23485 4.77391L7.84961 5.38867Z" fill="black"/>
</svg>
