<svg width="250" height="250" viewBox="0 0 250 250" fill="none" xmlns="http://www.w3.org/2000/svg">
<path d="M85.25 18H105.312C182.874 18 245.75 80.876 245.75 158.437V196.174C234.965 173.147 211.833 158.437 186.405 158.437H85.25V18Z" fill="#FF0000"/>
<path d="M195.116 198.085C187.657 218.455 168.272 232 146.579 232L141.783 232C110.561 232 85.25 206.689 85.25 175.467L85.25 158.437L104.586 167.741C125.401 177.755 147.148 185.706 169.514 191.478L195.116 198.085Z" fill="#FF0000"/>
<circle cx="33.183" cy="137.897" r="28.183" fill="white"/>
<circle cx="22.6741" cy="143.629" r="5.25446" fill="black"/>
<path d="M104.586 167.74C125.401 177.755 147.148 185.706 169.515 191.478L194.254 197.862L85.4121 179.784C85.3045 178.359 85.25 176.919 85.25 175.467V158.438L104.586 167.74Z" fill="black" fill-opacity="0.4"/>
</svg>
